<svg xmlns="http://www.w3.org/2000/svg" viewBox="0 0 46 12.13">
<defs><style>.cls-1{fill:#fff;}</style></defs>
<path class="cls-1" d="M4.91,1.54H4.46c-1.4,0-2.38.16-2.38,1.71S3.18,5,4.47,5H4.91V1.54ZM4.91,6h-1c-1.25,0-2.77.23-2.77,1.81S2.49,9.64,3.77,9.64H4.91V6ZM6,10.7H3.67C1.64,10.7,0,9.88,0,7.85A2.6,2.6,0,0,1,1.94,5.24a2.26,2.26,0,0,1-1-2C0.94,1.16,2.5.49,4.36,0.49H6V10.7Z"/>
<path class="cls-1" d="M13,9.64h1.14c1.28,0,2.62-.31,2.62-1.87S15.25,6,14,6H13V9.64ZM13,5h0.43c1.29,0,2.39-.15,2.39-1.73s-1-1.71-2.38-1.71H13V5Zm-1.14-4.5h1.69c1.86,0,3.43.68,3.43,2.76a2.26,2.26,0,0,1-1,2,2.6,2.6,0,0,1,1.94,2.61c0,2-1.65,2.84-3.67,2.84H11.87V0.49Z"/>
<path class="cls-1" d="M22.53,2.65L20.77,6.74h3.47ZM20.31,7.8l-1.24,2.9H17.82L22.55,0l4.61,10.7H25.9L24.69,7.8H20.31Z"/>
<polygon class="cls-1" points="27.8 0.05 35.79 8.4 35.79 0.49 36.94 0.49 36.94 11.16 28.94 2.83 28.94 10.7 27.8 10.7 27.8 0.05"/>
<polygon class="cls-1" points="44.3 0.49 45.84 0.49 41.02 5.24 46 10.7 44.42 10.7 40.22 6.01 39.94 6.3 39.94 10.7 38.8 10.7 38.8 0.49 39.94 0.49 39.94 4.86 44.3 0.49"/>
<polygon class="cls-1" points="7.18 10.2 8.51 10.2 8.51 8.71 8.97 8.71 8.97 10.2 11.19 10.2 11.19 10.7 6.72 10.7 6.72 8.67 7.18 8.67 7.18 10.2"/>
<path class="cls-1" d="M9,7.71A1.83,1.83,0,1,0,7.1,5.88,1.85,1.85,0,0,0,9,7.71M9,3.56A2.32,2.32,0,1,1,6.64,5.88,2.32,2.32,0,0,1,9,3.56"/>
<path class="cls-1" d="M8.79,2.5V2.35c0-.56-0.11-1.13-0.8-1.13s-0.81.54-.81,1.13V2.5H8.79Zm2.4,0V3H6.72V2.35C6.72,1.51,6.94.72,8,.72A1.17,1.17,0,0,1,9.18,1.84l2-1.42V1l-2,1.35V2.5h2Z"/>
</svg>